<?xml version="1.0" encoding="UTF-8" standalone="no"?><!DOCTYPE svg PUBLIC "-//W3C//DTD SVG 1.1//EN" "http://www.w3.org/Graphics/SVG/1.1/DTD/svg11.dtd"><svg width="100%" height="100%" viewBox="0 0 16667 2084" version="1.1" xmlns="http://www.w3.org/2000/svg" xmlns:xlink="http://www.w3.org/1999/xlink" xml:space="preserve" xmlns:serif="http://www.serif.com/" style="fill-rule:evenodd;clip-rule:evenodd;stroke-linejoin:round;stroke-miterlimit:2;"><g id="Background"><rect x="0" y="-625" width="16666.7" height="3333.33" style="fill:#fff;fill-opacity:0.5;"/></g><g><path id="path136" d="M2180.14,1293.92c83.441,43.904 180.117,65.859 290.027,65.859c52.74,-0 110.503,-7.761 173.264,-23.32c45.211,-10.981 87.414,-25.156 126.603,-42.526l114.709,-0.012c-69.395,41.282 -135.395,71.564 -197.995,90.853c-73.883,22.747 -154.104,34.127 -240.739,34.153c-155.449,0 -290.967,-41.656 -406.499,-124.987l140.63,-0.021" style="fill:#a94446;"/><path id="path138" d="M2025.08,1168.92c17.75,21.53 37.83,41.842 60.249,60.906c29.439,24.956 61.041,46.325 94.814,64.094l-140.63,-0.009c-14.478,-10.426 -28.634,-21.517 -42.481,-33.264c-33.856,-28.91 -63.14,-59.482 -87.865,-91.748l115.913,0.02l0,0.001Zm744.957,124.993c44.071,-19.533 84.336,-43.105 120.795,-70.753l31.654,47.485c-12.687,8.121 -25.272,15.888 -37.74,23.301l-114.709,-0.034" style="fill:#a94446;"/><path id="path140" d="M1971.11,1085.59c14.613,29.58 32.601,57.351 53.97,83.312l-115.913,0.025c-20.403,-26.644 -37.695,-54.401 -51.877,-83.312l113.82,-0.025Zm365.572,0c13.267,6.202 28.331,9.3 45.191,9.3c15.934,-0 31.113,-3.104 45.533,-9.306l80.974,0.008c-9.306,9.487 -19.816,18.696 -31.544,27.629c-37.225,28.318 -76.923,42.48 -119.12,42.48c-62.761,0 -115.784,-21.375 -159.102,-64.145c-1.964,-1.958 -3.883,-3.955 -5.757,-5.977l143.825,0.013l-0,-0.002Zm374.208,0c9.815,5.088 21.201,7.632 34.165,7.632c14.124,-0 28.364,-2.538 42.713,-7.613l100.262,-0.02c-53.68,46.183 -112.158,69.272 -175.46,69.272c-59.424,-0 -103.289,-18.323 -131.614,-54.975c-3.619,-4.676 -6.904,-9.435 -9.853,-14.291l139.787,-0.008" style="fill:#a94446;"/><path id="path142" d="M1940.12,1002.26c7.651,29.22 17.982,56.997 30.991,83.331l-113.819,0c-13.152,-26.779 -23.63,-54.569 -31.429,-83.331l114.257,-0Zm340.893,-0c3.355,24.641 11.985,44.979 25.89,60.977c8.643,9.667 18.573,17.118 29.78,22.361l-143.825,-0.009c-21.865,-23.629 -37.593,-51.4 -47.176,-83.325l135.331,-0.008l-0,0.004Zm392.524,-0c-1.185,7.69 -1.784,13.859 -1.784,18.497c-0,11.109 3.883,23.61 11.663,37.489c7.11,12.429 16.262,21.555 27.475,27.352l-139.787,-0.009c-12.43,-20.422 -18.858,-42.313 -19.302,-65.665c-8.752,23.204 -23.224,45.088 -43.421,65.678l-80.974,-0.012c31.068,-13.377 58.62,-41.141 82.649,-83.319l163.481,-0.012l-0,0.001Zm289.112,-0c-3.046,4.218 -6.157,8.45 -9.339,12.662c-20.911,27.654 -42.673,51.207 -65.285,70.663l-100.256,0.008c35.254,-12.456 71.197,-40.233 107.843,-83.351l67.037,0.021" style="fill:#a94446;"/><path id="path144" d="M1924.64,835.587c-0.606,10.794 -0.908,21.697 -0.908,32.723c-0,47.588 5.461,92.238 16.39,133.959l-114.257,-0.013c-11.393,-41.997 -17.086,-86.094 -17.086,-132.277c-0,-11.567 0.302,-23.031 0.914,-34.372l114.947,-0.021l-0,0.001Zm381.08,0c-17.537,49.004 -26.303,96.276 -26.303,141.854c0,8.701 0.535,16.977 1.598,24.815l-135.331,-0c-7.47,-24.905 -11.206,-52.334 -11.206,-82.294c0,-28.866 3.439,-56.991 10.318,-84.381l160.924,0.008l-0,-0.002Zm410.615,0c-3.304,11.09 -6.499,22 -9.596,32.723c-18.059,62.793 -29.124,107.438 -33.2,133.92l-163.481,0.025c11.051,-19.385 21.356,-41.817 30.92,-67.301c13.795,-36.478 25.239,-69.601 34.34,-99.387l141.017,0.021l-0,-0.001Zm326.311,0c-15.586,58.362 -42.255,113.897 -79.995,166.637l-67.037,0.033c5.332,-6.299 10.684,-12.9 16.049,-19.823c33.399,-43.453 57.042,-92.393 70.933,-146.846l60.05,0" style="fill:#a94446;"/><path id="path146" d="M1961.92,668.918c-21.536,52.057 -33.959,107.624 -37.289,166.676l-114.947,-0.009c3.15,-58.555 14.439,-114.122 33.863,-166.662l118.373,-0.009l0,0.004Zm436.312,0c-15.508,18.117 -30.682,40.149 -45.52,66.116c-19.598,34.289 -35.261,67.823 -47.001,100.585l-160.925,-0.033c14.813,-58.961 45.559,-114.515 92.252,-166.675l161.194,0.008l0,-0.001Zm370.44,0l-11.959,36.961c-14.845,45.797 -28.305,89.025 -40.387,129.689l-141.017,0.021c17.633,-57.757 26.45,-102.923 26.469,-135.537c0,-11.303 -1.236,-21.671 -3.709,-31.1l170.603,-0.033l0,-0.001Zm288.874,0c1.031,12.913 1.546,26.071 1.546,39.46c-0,43.794 -5.487,86.21 -16.455,127.241l-60.05,-0.033c9.899,-38.777 14.852,-80.349 14.865,-124.71c-0,-14.362 -0.606,-28.357 -1.817,-41.972l61.911,0.013" style="fill:#a94446;"/><path id="path148" d="M2073.17,502.249c-49.256,50.872 -86.339,106.427 -111.244,166.65l-118.373,0.021c21.962,-59.406 54.331,-114.96 97.101,-166.656l132.516,-0.013l-0,-0.002Zm935.822,0c27.539,50.46 43.717,106.001 48.56,166.65l-61.91,0.021c-5.655,-63.618 -24.506,-119.165 -56.559,-166.643l69.909,-0.025l0,-0.003Zm-771.948,166.669c2.151,-2.408 4.334,-4.798 6.549,-7.187c73.304,-78.849 153.273,-118.257 239.908,-118.283c39.409,0 73.014,10.285 100.791,30.823c27.752,19.985 45.785,44.715 54.144,74.128l27.487,-84.129l136.612,-0l-33.857,104.648l-170.603,0c-3.839,-14.619 -10.659,-27.023 -20.448,-37.173c-16.114,-16.661 -38.604,-24.989 -67.469,-24.989c-39.067,0 -76.369,20.732 -111.92,62.194l-161.194,-0.033" style="fill:#a94446;"/><path id="path150" d="M1940.66,502.249c22.116,-26.72 47.015,-52.424 74.695,-77.09c136.612,-122.16 301.806,-183.233 495.634,-183.259c150.484,-0 278.189,41.939 383.173,125.779c49.358,39.898 87.633,84.761 114.83,134.59l-69.909,-0.021c-23.456,-34.72 -53.977,-65.144 -91.569,-91.253c-99.412,-69.394 -208.82,-104.095 -328.198,-104.12c-149.39,-0 -283.503,51.38 -402.339,154.097c-15.534,13.402 -30.141,27.159 -43.807,41.269l-132.51,0.009" style="fill:#a94446;"/><path id="path152" d="M3576.44,683.003c-0,-83.453 -63.985,-136.303 -164.125,-136.303c-122.398,0 -228.11,75.101 -305.999,158.554c-77.895,80.678 -119.622,175.261 -119.622,255.926c-0,133.533 89.018,189.164 211.422,189.164c119.616,0 194.723,-58.413 258.701,-141.873l-27.815,-19.469c-55.638,75.107 -130.745,125.18 -211.416,125.18c-52.856,0 -72.325,-25.033 -72.325,-72.325c-0,-102.929 69.542,-278.182 155.778,-400.581c30.604,-44.509 52.856,-58.42 100.147,-58.42c25.034,0 41.727,2.783 41.727,13.911c-0,13.911 -72.331,25.034 -72.331,94.583c-0,50.067 38.951,83.453 100.146,83.453c55.638,0 105.712,-36.168 105.712,-91.8" style="fill-rule:nonzero;"/><path id="path154" d="M4187.28,73.788l-175.26,0l-214.198,492.375l-114.052,0l-16.693,38.951l114.058,0l-144.656,342.161c-16.693,38.945 -25.04,61.196 -25.04,102.923c-0,61.202 55.638,100.146 111.276,100.146c77.889,0 139.085,-61.195 189.164,-105.711l-22.257,-25.027c-44.509,30.592 -77.889,63.978 -108.487,63.978c-11.129,0 -16.694,-13.911 -16.694,-25.04c0,-11.129 5.565,-19.469 8.347,-30.591l180.818,-422.839l127.963,0l16.693,-38.951l-127.962,0l216.98,-492.375" style="fill-rule:nonzero;"/><path id="path156" d="M4500.09,151.677c-0,-47.291 -41.727,-80.671 -89.018,-80.671c-72.325,0 -114.058,61.196 -114.058,141.874c-0,44.509 50.073,75.107 97.364,75.107c66.767,-0 105.712,-66.761 105.712,-136.31Zm-172.472,414.486l-164.125,0l-147.438,397.799c-13.911,33.38 -16.693,52.855 -16.693,86.236c-0,66.766 47.291,100.146 108.493,100.146c66.76,0 127.963,-52.849 183.601,-105.711l-22.258,-25.027c-36.162,30.592 -75.107,66.76 -105.705,66.76c-8.346,0 -13.911,-13.911 -13.911,-25.04c0,-11.128 5.565,-19.469 8.347,-30.597l169.689,-464.566"/><path id="path158" d="M4987.76,685.785c-0,-100.146 -44.509,-144.649 -108.493,-144.649c-55.638,-0 -91.801,55.631 -91.801,111.269c0,61.196 27.822,94.576 75.107,94.576c36.169,0 63.985,-19.469 83.46,-47.285c0,180.819 -172.471,414.486 -356.072,414.486c-44.509,0 -58.42,-19.469 -58.42,-47.291c0,-13.911 2.782,-22.258 8.347,-36.162l175.254,-464.566l-169.69,0l-130.745,350.514c-13.911,36.156 -25.04,58.42 -25.04,97.358c0,77.896 55.638,136.309 164.132,136.309c114.051,0 219.763,-50.067 311.563,-150.22c66.76,-72.325 122.398,-180.812 122.398,-314.339" style="fill-rule:nonzero;"/><path id="path160" d="M5032.83,900.344c-4.643,19.611 -7.11,39.074 -7.11,58.053c0,127.969 83.454,191.947 208.634,191.947c116.834,0 186.383,-52.849 261.49,-141.873l-27.816,-19.469c-58.42,72.324 -130.745,125.18 -214.198,125.18c-47.292,0 -69.55,-25.033 -69.55,-63.984c0.001,-41.727 13.912,-102.923 13.912,-102.923c-0,-0 59.541,-20.332 128.542,-46.898l-111.546,-0.034c-2.898,0.831 -5.784,1.636 -8.65,2.422c0.334,-0.805 0.664,-1.61 1.005,-2.415l-174.713,-0.009"/><path id="path162" d="M5207.54,900.344c27.745,-66.612 66.393,-159.958 118.611,-245.157c33.38,-52.855 77.889,-75.113 119.616,-75.113c72.325,0 102.929,36.162 102.929,69.549c0,41.727 -36.168,91.794 -83.453,130.745c-56.591,45.81 -160.177,94.234 -250.058,119.976l111.546,0c66.058,-25.4 140.785,-56.539 180.239,-81.032c61.195,-38.944 108.487,-77.895 108.487,-147.438c-0,-58.42 -47.292,-125.174 -164.125,-125.174c-174.591,0 -378.253,183.363 -418.505,353.619l174.713,0.025"/><path id="path164" d="M7380.34,666.31c0,-66.76 -52.81,-119.61 -125.135,-119.61c-69.555,0 -130.738,44.503 -169.702,94.576c-2.769,-52.849 -44.503,-94.576 -97.378,-94.576c-66.785,0 -139.11,55.632 -197.524,127.957l25.053,25.039c41.733,-44.509 91.774,-97.364 122.43,-97.364c11.078,-0 16.681,8.346 16.681,19.469c-0,11.129 -2.77,19.475 -8.373,33.386l-180.779,475.688l155.727,0l125.199,-325.474c41.734,-111.269 114.058,-222.545 205.833,-222.545c11.141,0 16.744,0 27.822,2.783c-63.953,13.911 -108.455,52.855 -108.455,114.057c-0,52.85 30.591,89.018 91.774,89.018c77.928,0 116.827,-55.637 116.827,-122.404" style="fill-rule:nonzero;"/><path id="path166" d="M7958.23,730.294c-0,-125.18 -72.325,-183.594 -186.383,-183.594c-183.613,0 -381.137,200.281 -381.137,420.044c-0,116.84 75.093,183.6 178.074,183.6c211.371,0 389.446,-261.489 389.446,-420.05Zm-83.467,-47.291c0,139.092 -83.466,319.903 -172.471,389.452c-33.361,25.04 -64.017,38.945 -97.378,38.945c-36.13,-0 -58.414,-25.034 -58.414,-69.543c0,-91.8 72.325,-283.747 125.2,-395.016c19.45,-41.727 61.183,-63.985 105.686,-63.985c66.786,0 97.377,30.598 97.377,100.147"/><path id="path168" d="M8699.77,566.163l-153.023,0l-108.454,283.747c-13.911,36.163 -36.195,83.454 -75.159,127.969c-63.952,72.319 -141.88,127.956 -214.205,127.956c-24.988,0 -30.591,-16.686 -30.591,-33.38c-0,-13.911 2.769,-22.257 8.372,-36.162l178.011,-470.13l-155.792,0l-152.957,403.363c-11.142,30.598 -16.68,50.08 -16.68,83.454c-0,47.297 27.822,97.364 119.596,97.364c111.289,0 194.691,-66.76 272.619,-130.738c-2.77,8.347 -2.77,13.905 -2.77,22.251c0,61.203 33.361,108.487 108.455,108.487c77.928,0 141.88,-58.413 203.063,-127.956l-27.822,-25.046c-38.899,41.733 -97.313,100.153 -122.366,100.153c-16.68,0 -19.45,-19.475 -19.45,-25.04c0,-11.129 2.77,-19.475 8.308,-30.598l180.844,-475.694" style="fill-rule:nonzero;"/><path id="path170" d="M9291.31,657.97c0,105.705 -91.775,278.176 -169.638,381.105c-27.822,36.163 -61.247,61.202 -97.377,61.202c-44.503,0 -75.094,-36.168 -75.094,-86.242c-0,-47.291 11.077,-72.324 27.757,-116.833l97.378,-239.232c52.875,-33.387 125.199,-69.543 166.933,-69.543c33.361,0 50.041,27.809 50.041,69.543Zm153.022,83.447c-0,-102.923 -66.786,-194.717 -178.01,-194.717c-61.248,0 -119.662,33.374 -169.702,55.632l13.009,-34.797l-155.792,-0l-389.059,958.138l155.792,0l192.436,-464.347c41.733,52.856 86.236,89.018 161.33,89.018c166.933,0 369.996,-219.762 369.996,-408.927"/><path id="path172" d="M6064.93,1382.29c7.632,11.335 11.56,25.259 11.56,41.482c0,36.162 -19.475,63.978 -47.291,83.46c41.141,-0 85.019,-8.933 128.259,-24.892c37.991,-35.235 56.771,-61.911 74.411,-100.076l141.243,0.025c-13.254,15.09 -27.751,29.845 -43.479,44.264c-72.324,66.761 -180.818,122.399 -314.345,122.399c-100.147,-0 -144.649,-44.503 -144.649,-108.488c-0,-23.172 9.647,-42.969 24.93,-58.175l169.361,0"/><path id="path174" d="M6349.21,1048.95c-5.113,4.701 -10.491,9.383 -16.101,14.052c-41.726,33.381 -94.582,52.856 -136.309,52.856c-25.033,0 -38.944,-36.156 -38.944,-66.767l-0,-0.167l-133.637,0.025c24.46,57.621 74.959,98.607 152.346,98.607c75.113,0 127.962,-19.469 180.818,-66.76c-76.588,166.038 -99.851,245.917 -125.522,301.458l141.243,0.025c46.544,-52.946 77.895,-109.852 93.996,-169.792l69.362,-163.539l-187.252,0l0,0.002Zm-453.649,333.331c21.414,-21.311 53.873,-33.631 86.339,-33.631c40.207,-0 68.416,12.011 83.022,33.663l-169.361,-0.033"/><path id="path176" d="M6024.22,1048.95c-11.592,-27.32 -17.343,-58.356 -17.343,-90.558c-0,-175.247 191.947,-411.697 383.887,-411.697c75.113,0 127.988,44.503 147.438,97.359l33.361,-77.896l169.702,0l-204.802,482.792l-187.252,-0c25.304,-23.192 44.187,-46.725 53.449,-72.183l114.032,-278.177c-0,-63.984 -50.042,-114.058 -111.25,-114.058c-36.169,0 -63.985,33.38 -86.236,69.543c-75.049,127.866 -161.214,319.613 -161.349,394.849l-133.637,0.025"/><path id="path178" d="M54.481,1857.59c29.143,-0 52.106,-22.96 52.106,-52.109c0,-29.142 -22.963,-52.102 -52.106,-52.102c-29.142,0 -52.104,22.96 -52.104,52.102c0,29.149 22.962,52.109 52.104,52.109" style="fill:#fff;fill-rule:nonzero;"/><path id="path180" d="M425.269,1857.59c29.143,-0 52.106,-22.96 52.106,-52.109c0,-29.142 -22.963,-52.102 -52.106,-52.102c-29.142,0 -52.103,22.96 -52.103,52.102c-0,29.149 22.961,52.109 52.103,52.109" style="fill:#fff;fill-rule:nonzero;"/><path id="path182" d="M796.055,1857.59c29.142,-0 52.108,-22.96 52.108,-52.109c0,-29.142 -22.966,-52.102 -52.108,-52.102c-29.143,0 -52.102,22.96 -52.102,52.102c-0,29.149 22.959,52.109 52.102,52.109" style="fill:#a94446;fill-rule:nonzero;"/><path id="path184" d="M1166.85,1857.59c29.143,-0 52.103,-22.96 52.103,-52.109c-0,-29.142 -22.96,-52.102 -52.103,-52.102c-29.142,0 -52.108,22.96 -52.108,52.102c-0,29.149 22.966,52.109 52.108,52.109" style="fill:#a94446;fill-rule:nonzero;"/><path id="path186" d="M1537.64,1857.59c29.142,-0 52.102,-22.96 52.102,-52.109c-0,-29.142 -22.96,-52.102 -52.102,-52.102c-29.143,0 -52.109,22.96 -52.109,52.102c-0,29.149 22.966,52.109 52.109,52.109" style="fill:#a94446;fill-rule:nonzero;"/><path id="path188" d="M1908.43,1857.59c29.142,-0 52.102,-22.96 52.102,-52.109c-0,-29.142 -22.96,-52.102 -52.102,-52.102c-29.149,0 -52.109,22.96 -52.109,52.102c0,29.149 22.96,52.109 52.109,52.109" style="fill:#a94446;fill-rule:nonzero;"/><path id="path190" d="M2279.21,1857.59c29.142,-0 52.102,-22.96 52.102,-52.109c-0,-29.142 -22.96,-52.102 -52.102,-52.102c-29.149,0 -52.109,22.96 -52.109,52.102c0,29.149 22.96,52.109 52.109,52.109" style="fill:#a94446;fill-rule:nonzero;"/><path id="path192" d="M2649.99,1857.59c29.149,-0 52.109,-22.96 52.109,-52.109c-0,-29.142 -22.96,-52.102 -52.109,-52.102c-29.136,0 -52.102,22.96 -52.102,52.102c0,29.149 22.966,52.109 52.102,52.109" style="fill:#a94446;fill-rule:nonzero;"/><path id="path194" d="M3020.79,1857.59c29.142,-0 52.102,-22.96 52.102,-52.109c0,-29.142 -22.96,-52.102 -52.102,-52.102c-29.149,0 -52.109,22.96 -52.109,52.102c0,29.149 22.96,52.109 52.109,52.109" style="fill:#a94446;fill-rule:nonzero;"/><path id="path196" d="M3391.57,1857.59c29.148,-0 52.108,-22.96 52.108,-52.109c0,-29.142 -22.96,-52.102 -52.108,-52.102c-29.143,0 -52.102,22.96 -52.102,52.102c-0.001,29.149 22.959,52.109 52.102,52.109" style="fill:#a94446;fill-rule:nonzero;"/><path id="path198" d="M3762.37,1857.59c29.136,-0 52.102,-22.96 52.102,-52.109c0,-29.142 -22.966,-52.102 -52.102,-52.102c-29.149,0 -52.108,22.96 -52.108,52.102c-0,29.149 22.959,52.109 52.108,52.109" style="fill:#a94446;fill-rule:nonzero;"/><path id="path200" d="M4133.15,1857.59c29.149,-0 52.108,-22.96 52.108,-52.109c0,-29.142 -22.959,-52.102 -52.108,-52.102c-29.136,0 -52.102,22.96 -52.102,52.102c-0,29.149 22.966,52.109 52.102,52.109" style="fill:#a94446;fill-rule:nonzero;"/><path id="path202" d="M4503.94,1857.59c29.142,-0 52.102,-22.96 52.102,-52.109c-0,-29.142 -22.96,-52.102 -52.102,-52.102c-29.143,0 -52.109,22.96 -52.109,52.102c-0,29.149 22.966,52.109 52.109,52.109" style="fill:#a94446;fill-rule:nonzero;"/><path id="path204" d="M4874.73,1857.59c29.143,-0 52.102,-22.96 52.102,-52.109c0.001,-29.142 -22.959,-52.102 -52.102,-52.102c-29.142,0 -52.108,22.96 -52.108,52.102c0,29.149 22.966,52.109 52.108,52.109" style="fill:#a94446;fill-rule:nonzero;"/><path id="path206" d="M5245.52,1857.59c29.142,-0 52.102,-22.96 52.102,-52.109c-0,-29.142 -22.96,-52.102 -52.102,-52.102c-29.149,0 -52.109,22.96 -52.109,52.102c0,29.149 22.96,52.109 52.109,52.109" style="fill:#a94446;fill-rule:nonzero;"/><path id="path208" d="M5616.31,1857.59c29.142,-0 52.102,-22.96 52.102,-52.109c-0,-29.142 -22.96,-52.102 -52.102,-52.102c-29.143,0 -52.109,22.96 -52.109,52.102c0,29.149 22.966,52.109 52.109,52.109" style="fill:#a94446;fill-rule:nonzero;"/><path id="path210" d="M5987.1,1857.59c29.142,-0 52.102,-22.96 52.102,-52.109c0,-29.142 -22.96,-52.102 -52.102,-52.102c-29.142,0 -52.102,22.96 -52.102,52.102c-0,29.149 22.959,52.109 52.102,52.109" style="fill:#a94446;fill-rule:nonzero;"/><path id="path212" d="M6357.88,1857.59c29.148,-0 52.108,-22.96 52.108,-52.109c0,-29.142 -22.96,-52.102 -52.108,-52.102c-29.137,0 -52.103,22.96 -52.103,52.102c0,29.149 22.966,52.109 52.103,52.109" style="fill:#a94446;fill-rule:nonzero;"/><path id="path214" d="M6728.65,1857.59c29.175,-0 52.102,-22.96 52.102,-52.109c0.001,-29.142 -22.927,-52.102 -52.102,-52.102c-29.11,0 -52.102,22.96 -52.102,52.102c0,29.149 22.992,52.109 52.102,52.109" style="fill:#a94446;fill-rule:nonzero;"/><path id="path216" d="M7099.48,1857.59c29.111,-0 52.102,-22.96 52.102,-52.109c0,-29.142 -22.991,-52.102 -52.102,-52.102c-29.174,0 -52.102,22.96 -52.102,52.102c0,29.149 22.928,52.109 52.102,52.109" style="fill:#a94446;fill-rule:nonzero;"/><path id="path218" d="M7470.25,1857.59c29.111,-0 52.103,-22.96 52.103,-52.109c-0,-29.142 -22.992,-52.102 -52.103,-52.102c-29.174,0 -52.102,22.96 -52.102,52.102c0,29.149 22.928,52.109 52.102,52.109" style="fill:#a94446;fill-rule:nonzero;"/><path id="path220" d="M7841.02,1857.59c29.175,-0 52.102,-22.96 52.102,-52.109c0,-29.142 -22.927,-52.102 -52.102,-52.102c-29.11,0 -52.102,22.96 -52.102,52.102c-0,29.149 22.992,52.109 52.102,52.109" style="fill:#a94446;fill-rule:nonzero;"/><path id="path222" d="M8211.85,1857.59c29.111,-0 52.102,-22.96 52.102,-52.109c0,-29.142 -22.991,-52.102 -52.102,-52.102c-29.174,0 -52.102,22.96 -52.102,52.102c0,29.149 22.928,52.109 52.102,52.109" style="fill:#a94446;fill-rule:nonzero;"/><path id="path224" d="M8582.62,1857.59c29.11,-0 52.102,-22.96 52.102,-52.109c0,-29.142 -22.992,-52.102 -52.102,-52.102c-29.175,0 -52.102,22.96 -52.102,52.102c-0,29.149 22.927,52.109 52.102,52.109" style="fill:#a94446;fill-rule:nonzero;"/><rect x="10346.7" y="-311.266" width="5153.88" height="1486.27" style="fill:none;"/></g><g><g><path d="M14687.8,1726.37c595.649,-318.56 893.889,-844.639 789.755,-1211.44c-19.994,-70.993 -76.643,-212.07 -265.751,-341.314c17.495,137.436 24.159,310.368 -4.165,503.325c-77.476,549.744 -383.214,907.441 -519.839,1049.43Z" style="fill:#46afe2;fill-rule:nonzero;"/></g><g><path d="M14841.1,1734.56c145.788,-65.533 272.415,-92.838 359.888,-106.49c152.453,-23.665 373.218,-53.701 579.82,71.903c20.827,12.743 37.489,24.575 48.319,32.766c27.491,-58.251 301.573,-662.605 23.326,-1155.92c-71.645,-126.514 -163.283,-216.621 -248.257,-280.333c47.486,209.339 30.824,371.35 12.497,466.918c-74.144,388.644 -349.059,630.749 -519.839,781.838c-102.468,88.287 -192.44,150.178 -255.754,189.316Z" style="fill:#eb3c44;fill-rule:nonzero;"/></g><g><path d="M14605.4,1742.75c410.706,-457.816 572.322,-952.04 417.37,-1216.9c-29.99,-50.969 -80.808,-109.22 -171.613,-154.729c18.328,162.011 27.491,385.913 -12.496,648.042c-49.152,319.471 -153.286,566.127 -233.261,723.587Z" style="fill:#f6dc3b;fill-rule:nonzero;"/></g><g><g><path d="M10687.2,1490.89l138.502,-0c-19.786,84.924 -59.358,148.231 -115.89,193.01c-56.531,46.322 -128.609,69.483 -214.819,69.483c-105.997,0 -187.967,-37.058 -245.912,-112.718c-59.358,-71.027 -89.037,-174.481 -89.037,-310.36c-0,-128.158 28.266,-228.523 86.21,-301.095c57.945,-74.116 139.916,-111.174 245.912,-111.174c110.236,0 195.034,35.514 255.805,108.086c59.358,74.115 89.037,177.569 89.037,310.36l-0,33.969c-0,9.265 -1.413,16.985 -2.827,20.073l-477.69,0c1.413,63.308 15.546,109.63 40.985,138.968c24.026,32.425 60.771,47.866 107.41,47.866c32.505,0 57.944,-6.176 80.557,-20.073c5.653,-1.544 11.306,-6.176 15.546,-10.809c4.24,-4.632 9.893,-10.808 15.546,-16.984c1.414,-6.177 8.48,-13.897 19.786,-23.162c12.72,-10.808 29.679,-15.44 50.879,-15.44Zm-330.709,-236.245l281.244,0c-2.827,-54.042 -16.96,-94.188 -38.159,-120.438c-24.026,-27.793 -57.945,-41.69 -101.757,-41.69c-40.985,0 -74.904,13.897 -100.343,41.69c-25.439,29.338 -39.572,69.484 -40.985,120.438Z" style="fill:#eb3c44;fill-rule:nonzero;"/></g><g><path d="M11507.3,1737.94l-190.794,0l0,-512.634c0,-47.867 -12.719,-83.38 -39.572,-104.997c-26.852,-23.162 -56.531,-33.97 -89.037,-33.97c-33.919,-0 -63.598,10.808 -89.037,33.97c-25.439,21.617 -38.159,57.13 -38.159,104.997l0,512.634l-193.62,0l0,-470.944c0,-135.879 32.506,-226.98 97.517,-273.302c66.424,-46.322 138.502,-72.572 217.646,-75.66c42.399,0 83.384,4.632 124.369,15.441c39.572,9.264 76.318,29.337 110.237,60.219c26.852,-26.249 59.358,-44.778 97.516,-57.131c38.159,-10.809 76.318,-16.985 117.303,-18.529c80.557,0 155.462,23.161 223.299,69.484c67.838,46.322 101.757,138.967 101.757,279.478l-0,470.944l-96.104,0c-26.852,0 -49.465,-9.264 -67.837,-29.337c-16.96,-18.529 -25.439,-43.234 -25.439,-72.572l-0,-410.725c-0,-47.867 -14.133,-83.38 -40.986,-104.997c-25.439,-23.162 -56.531,-33.97 -89.037,-33.97c-33.919,-0 -63.598,10.808 -90.45,33.97c-25.439,21.617 -39.572,57.13 -39.572,104.997l-0,512.634Z" style="fill:#eb3c44;fill-rule:nonzero;"/></g><g><path d="M12197.8,800.686l0,240.876c19.786,-38.602 49.465,-69.483 87.624,-94.188c33.919,-20.073 73.491,-29.338 121.543,-29.338c86.21,0 158.288,38.602 213.406,117.35c55.118,78.748 81.97,179.113 81.97,304.184c0,125.07 -26.852,226.98 -81.97,304.183c-28.266,38.602 -65.011,66.396 -111.65,83.381c-48.051,16.985 -94.69,26.249 -139.915,26.249c-89.037,0 -171.008,-26.249 -245.912,-75.66c-74.904,-50.954 -113.063,-146.687 -113.063,-290.287l0,-690.203l93.277,-0c26.853,-0 48.052,10.808 66.425,30.881c18.372,20.073 28.265,43.235 28.265,72.572Zm313.75,529.619c-0,-72.571 -12.72,-128.158 -40.985,-168.304c-26.853,-41.69 -65.012,-63.308 -113.063,-63.308c-50.879,0 -90.451,20.073 -118.716,60.22c-26.853,41.69 -40.986,98.821 -40.986,171.392c0,84.925 12.72,146.688 38.159,183.746c28.266,43.234 66.424,63.307 115.889,63.307c52.292,0 91.864,-20.073 118.717,-63.307c28.265,-41.69 40.985,-103.454 40.985,-183.746Z" style="fill:#eb3c44;fill-rule:nonzero;"/></g><g><path d="M13161.2,1333.39c-25.439,13.897 -62.184,27.794 -107.409,40.147c-42.399,9.264 -63.598,13.896 -63.598,13.896c-33.919,10.809 -57.945,23.161 -72.078,40.146c-12.72,21.617 -19.786,43.235 -19.786,66.396c0,29.337 8.48,54.043 25.439,72.572c16.96,15.44 39.572,23.161 72.078,23.161c50.878,-0 91.863,-15.441 121.542,-47.867c28.266,-32.425 43.812,-75.66 43.812,-132.791l0,-75.66Zm43.812,372.124c-38.159,21.617 -79.144,35.513 -122.956,40.146c-42.398,4.632 -80.557,7.72 -114.476,7.72c-66.424,0 -124.369,-20.073 -173.834,-58.675c-49.465,-40.146 -74.904,-104.997 -74.904,-194.554c-0,-84.924 22.612,-145.143 67.837,-180.657c45.226,-37.058 103.17,-61.763 172.421,-72.572c9.893,0 21.2,-1.544 33.919,-4.632c12.72,-3.088 26.853,-6.177 43.812,-7.721c80.557,-12.352 121.543,-38.602 121.543,-78.748c-0,-29.337 -14.133,-49.41 -42.399,-58.675c-29.679,-9.264 -55.118,-13.896 -79.144,-13.896c-25.439,-0 -49.465,4.632 -69.251,12.352c-19.786,7.721 -35.332,23.161 -43.812,44.779l-185.14,-0c7.066,-61.764 32.505,-112.718 77.73,-152.864c49.465,-46.323 120.13,-69.484 211.993,-69.484c103.17,0 180.901,18.529 231.779,57.131c53.705,40.146 80.558,95.733 80.558,168.305l-0,274.846c-0,80.292 -14.133,143.599 -40.986,188.378c-25.439,44.778 -57.944,77.204 -94.69,98.821Z" style="fill:#eb3c44;fill-rule:nonzero;"/></g><g><path d="M13367.9,1737.94l0,-389.108c0,-78.748 9.893,-143.599 31.093,-197.642c21.199,-52.499 50.878,-95.733 87.623,-128.158c35.332,-29.338 76.318,-52.499 122.956,-66.396c46.639,-13.897 94.69,-21.617 144.155,-21.617l28.266,-0l0,214.627l-63.598,0c-53.705,0 -93.277,13.897 -118.716,41.69c-25.439,29.338 -38.159,72.572 -38.159,132.791l0,413.813l-193.62,0Z" style="fill:#eb3c44;fill-rule:nonzero;"/></g><g><path d="M14311.5,1490.89l138.502,-0c-19.786,84.924 -59.358,148.231 -115.889,193.01c-56.532,46.322 -128.609,69.483 -214.82,69.483c-105.996,0 -187.967,-37.058 -245.911,-112.718c-59.358,-71.027 -89.037,-174.481 -89.037,-310.36c-0,-128.158 28.265,-228.523 86.21,-301.095c57.945,-74.116 139.915,-111.174 245.912,-111.174c110.236,0 195.033,35.514 255.805,108.086c33.918,44.778 57.944,95.733 72.077,154.408l-193.62,-0c-8.48,-20.073 -18.373,-35.514 -26.852,-46.323c-24.026,-27.793 -57.945,-41.69 -101.757,-41.69c-40.985,0 -74.904,13.897 -100.343,41.69c-32.506,40.146 -49.465,106.542 -49.465,199.186c-0,92.645 16.959,157.497 49.465,196.099c24.026,32.425 60.771,47.866 107.409,47.866c32.506,0 57.945,-6.176 80.558,-20.073c5.653,-1.544 11.306,-6.176 15.546,-10.809c4.24,-4.632 9.893,-10.808 15.546,-16.984c2.827,-6.177 9.893,-13.897 21.199,-23.162c11.307,-10.808 28.266,-15.44 49.465,-15.44Z" style="fill:#eb3c44;fill-rule:nonzero;"/></g></g></g></svg>