<?xml version="1.0" encoding="UTF-8" standalone="no"?>
<!DOCTYPE svg PUBLIC "-//W3C//DTD SVG 1.1//EN" "http://www.w3.org/Graphics/SVG/1.1/DTD/svg11.dtd">
<svg width="100%" height="100%" viewBox="0 0 710 188" version="1.1" xmlns="http://www.w3.org/2000/svg" xmlns:xlink="http://www.w3.org/1999/xlink" xml:space="preserve" xmlns:serif="http://www.serif.com/" style="fill-rule:evenodd;clip-rule:evenodd;stroke-linejoin:round;stroke-miterlimit:2;">
    <g id="embarc-Logo" serif:id="embarc Logo" transform="matrix(0.917915,0,0,0.779988,-22.5206,-72.6408)">
        <rect x="24.534" y="93.131" width="773.394" height="240.235" style="fill:none;"/>
        <g transform="matrix(1.08943,0,0,1.28207,-32.3727,-61.8729)">
            <path d="M600.9,299.1C672.4,264.1 708.2,206.3 695.7,166C693.3,158.2 686.5,142.7 663.8,128.5C665.9,143.6 666.7,162.6 663.3,183.8C654,244.2 617.3,283.5 600.9,299.1Z" style="fill:rgb(70,175,226);fill-rule:nonzero;"/>
        </g>
        <g transform="matrix(1.08943,0,0,1.28207,-32.3727,-61.8729)">
            <path d="M619.3,300C636.8,292.8 652,289.8 662.5,288.3C680.8,285.7 707.3,282.4 732.1,296.2C734.6,297.6 736.6,298.9 737.9,299.8C741.2,293.4 774.1,227 740.7,172.8C732.1,158.9 721.1,149 710.9,142C716.6,165 714.6,182.8 712.4,193.3C703.5,236 670.5,262.6 650,279.2C637.7,288.9 626.9,295.7 619.3,300Z" style="fill:rgb(235,60,68);fill-rule:nonzero;"/>
        </g>
        <g transform="matrix(1.08943,0,0,1.28207,-32.3727,-61.8729)">
            <path d="M591,300.9C640.3,250.6 659.7,196.3 641.1,167.2C637.5,161.6 631.4,155.2 620.5,150.2C622.7,168 623.8,192.6 619,221.4C613.1,256.5 600.6,283.6 591,300.9Z" style="fill:rgb(246,220,59);fill-rule:nonzero;"/>
        </g>
        <g transform="matrix(1.08943,0,0,1.28207,32.3744,323.225)">
            <g transform="matrix(169.647,0,0,169.647,0,0)">
                <path d="M0.361,-0.16L0.459,-0.16C0.445,-0.105 0.417,-0.064 0.377,-0.035C0.337,-0.005 0.286,0.01 0.225,0.01C0.15,0.01 0.092,-0.014 0.051,-0.063C0.009,-0.109 -0.012,-0.176 -0.012,-0.264C-0.012,-0.347 0.008,-0.412 0.049,-0.459C0.09,-0.507 0.148,-0.531 0.223,-0.531C0.301,-0.531 0.361,-0.508 0.404,-0.461C0.446,-0.413 0.467,-0.346 0.467,-0.26L0.467,-0.238C0.467,-0.232 0.466,-0.227 0.465,-0.225L0.127,-0.225C0.128,-0.184 0.138,-0.154 0.156,-0.135C0.173,-0.114 0.199,-0.104 0.232,-0.104C0.255,-0.104 0.273,-0.108 0.289,-0.117C0.293,-0.118 0.297,-0.121 0.3,-0.124C0.303,-0.127 0.307,-0.131 0.311,-0.135C0.312,-0.139 0.317,-0.144 0.325,-0.15C0.334,-0.157 0.346,-0.16 0.361,-0.16ZM0.127,-0.313L0.326,-0.313C0.324,-0.348 0.314,-0.374 0.299,-0.391C0.282,-0.409 0.258,-0.418 0.227,-0.418C0.198,-0.418 0.174,-0.409 0.156,-0.391C0.138,-0.372 0.128,-0.346 0.127,-0.313Z" style="fill:rgb(235,60,68);fill-rule:nonzero;"/>
            </g>
            <g transform="matrix(169.647,0,0,169.647,82.8353,0)">
                <path d="M0.453,-0L0.318,-0L0.318,-0.332C0.318,-0.363 0.309,-0.386 0.29,-0.4C0.271,-0.415 0.25,-0.422 0.227,-0.422C0.203,-0.422 0.182,-0.415 0.164,-0.4C0.146,-0.386 0.137,-0.363 0.137,-0.332L0.137,-0L0,-0L0,-0.305C0,-0.393 0.023,-0.452 0.069,-0.482C0.116,-0.512 0.167,-0.529 0.223,-0.531C0.253,-0.531 0.282,-0.528 0.311,-0.521C0.339,-0.515 0.365,-0.502 0.389,-0.482C0.408,-0.499 0.431,-0.511 0.458,-0.519C0.485,-0.526 0.512,-0.53 0.541,-0.531C0.598,-0.531 0.651,-0.516 0.699,-0.486C0.747,-0.456 0.771,-0.396 0.771,-0.305L0.771,-0L0.703,-0C0.684,-0 0.668,-0.006 0.655,-0.019C0.643,-0.031 0.637,-0.047 0.637,-0.066L0.637,-0.332C0.637,-0.363 0.627,-0.386 0.608,-0.4C0.59,-0.415 0.568,-0.422 0.545,-0.422C0.521,-0.422 0.5,-0.415 0.481,-0.4C0.463,-0.386 0.453,-0.363 0.453,-0.332L0.453,-0Z" style="fill:rgb(235,60,68);fill-rule:nonzero;"/>
            </g>
            <g transform="matrix(169.647,0,0,169.647,220.011,0)">
                <path d="M0.133,-0.607L0.133,-0.451C0.147,-0.476 0.168,-0.496 0.195,-0.512C0.219,-0.525 0.247,-0.531 0.281,-0.531C0.342,-0.531 0.393,-0.506 0.432,-0.455C0.471,-0.404 0.49,-0.339 0.49,-0.258C0.49,-0.177 0.471,-0.111 0.432,-0.061C0.412,-0.036 0.386,-0.018 0.353,-0.007C0.319,0.004 0.286,0.01 0.254,0.01C0.191,0.01 0.133,-0.007 0.08,-0.039C0.027,-0.072 0,-0.134 0,-0.227L0,-0.674L0.066,-0.674C0.085,-0.674 0.1,-0.667 0.113,-0.654C0.126,-0.641 0.133,-0.626 0.133,-0.607ZM0.355,-0.264C0.355,-0.311 0.346,-0.347 0.326,-0.373C0.307,-0.4 0.28,-0.414 0.246,-0.414C0.21,-0.414 0.182,-0.401 0.162,-0.375C0.143,-0.348 0.133,-0.311 0.133,-0.264C0.133,-0.209 0.142,-0.169 0.16,-0.145C0.18,-0.117 0.207,-0.104 0.242,-0.104C0.279,-0.104 0.307,-0.117 0.326,-0.145C0.346,-0.172 0.355,-0.212 0.355,-0.264Z" style="fill:rgb(235,60,68);fill-rule:nonzero;"/>
            </g>
            <g transform="matrix(169.647,0,0,169.647,307.153,0)">
                <path d="M0.301,-0.262C0.283,-0.253 0.257,-0.244 0.225,-0.236C0.195,-0.23 0.18,-0.227 0.18,-0.227C0.156,-0.22 0.139,-0.212 0.129,-0.201C0.12,-0.187 0.115,-0.173 0.115,-0.158C0.115,-0.139 0.121,-0.123 0.133,-0.111C0.145,-0.101 0.161,-0.096 0.184,-0.096C0.22,-0.096 0.249,-0.106 0.27,-0.127C0.29,-0.148 0.301,-0.176 0.301,-0.213L0.301,-0.262ZM0.332,-0.021C0.305,-0.007 0.276,0.002 0.245,0.005C0.215,0.008 0.188,0.01 0.164,0.01C0.117,0.01 0.076,-0.003 0.041,-0.028C0.006,-0.054 -0.012,-0.096 -0.012,-0.154C-0.012,-0.209 0.004,-0.248 0.036,-0.271C0.068,-0.295 0.109,-0.311 0.158,-0.318C0.165,-0.318 0.173,-0.319 0.182,-0.321C0.191,-0.323 0.201,-0.325 0.213,-0.326C0.27,-0.334 0.299,-0.351 0.299,-0.377C0.299,-0.396 0.289,-0.409 0.269,-0.415C0.248,-0.421 0.23,-0.424 0.213,-0.424C0.195,-0.424 0.178,-0.421 0.164,-0.416C0.15,-0.411 0.139,-0.401 0.133,-0.387L0.002,-0.387C0.007,-0.427 0.025,-0.46 0.057,-0.486C0.092,-0.516 0.142,-0.531 0.207,-0.531C0.28,-0.531 0.335,-0.519 0.371,-0.494C0.409,-0.468 0.428,-0.432 0.428,-0.385L0.428,-0.207C0.428,-0.155 0.418,-0.114 0.399,-0.085C0.381,-0.056 0.358,-0.035 0.332,-0.021Z" style="fill:rgb(235,60,68);fill-rule:nonzero;"/>
            </g>
            <g transform="matrix(169.647,0,0,169.647,383.03,0)">
                <path d="M0,-0L0,-0.252C0,-0.303 0.007,-0.345 0.022,-0.38C0.037,-0.414 0.058,-0.442 0.084,-0.463C0.109,-0.482 0.138,-0.497 0.171,-0.506C0.204,-0.515 0.238,-0.52 0.273,-0.52L0.293,-0.52L0.293,-0.381L0.248,-0.381C0.21,-0.381 0.182,-0.372 0.164,-0.354C0.146,-0.335 0.137,-0.307 0.137,-0.268L0.137,-0L0,-0Z" style="fill:rgb(235,60,68);fill-rule:nonzero;"/>
            </g>
            <g transform="matrix(169.647,0,0,169.647,435.051,0)">
                <path d="M0.361,-0.16L0.459,-0.16C0.445,-0.105 0.417,-0.064 0.377,-0.035C0.337,-0.005 0.286,0.01 0.225,0.01C0.15,0.01 0.092,-0.014 0.051,-0.063C0.009,-0.109 -0.012,-0.176 -0.012,-0.264C-0.012,-0.347 0.008,-0.412 0.049,-0.459C0.09,-0.507 0.148,-0.531 0.223,-0.531C0.301,-0.531 0.361,-0.508 0.404,-0.461C0.428,-0.432 0.445,-0.399 0.455,-0.361L0.318,-0.361C0.312,-0.374 0.305,-0.384 0.299,-0.391C0.282,-0.409 0.258,-0.418 0.227,-0.418C0.198,-0.418 0.174,-0.409 0.156,-0.391C0.133,-0.365 0.121,-0.322 0.121,-0.262C0.121,-0.202 0.133,-0.16 0.156,-0.135C0.173,-0.114 0.199,-0.104 0.232,-0.104C0.255,-0.104 0.273,-0.108 0.289,-0.117C0.293,-0.118 0.297,-0.121 0.3,-0.124C0.303,-0.127 0.307,-0.131 0.311,-0.135C0.313,-0.139 0.318,-0.144 0.326,-0.15C0.334,-0.157 0.346,-0.16 0.361,-0.16Z" style="fill:rgb(235,60,68);fill-rule:nonzero;"/>
            </g>
        </g>
    </g>
</svg>
